<svg width="512" height="512" viewBox="0 0 512 512" xmlns="http://www.w3.org/2000/svg">
  <defs>
    <linearGradient id="bg" x1="0" y1="0" x2="1" y2="1">
      <stop offset="0" stop-color="#221c2e"/>
      <stop offset="1" stop-color="#0d0b14"/>
    </linearGradient>
    <linearGradient id="claw" x1="0.2" y1="0" x2="0.8" y2="1">
      <stop offset="0" stop-color="#FF5436"/>
      <stop offset="1" stop-color="#F4310F"/>
    </linearGradient>
    <filter id="soft" x="-20%" y="-20%" width="140%" height="140%">
      <feDropShadow dx="0" dy="6" stdDeviation="10" flood-color="#000000" flood-opacity="0.35"/>
    </filter>
  </defs>

  <rect width="512" height="512" rx="116" fill="url(#bg)"/>
  <rect x="6" y="6" width="500" height="500" rx="112" fill="none" stroke="#FF2D20" stroke-opacity="0.18" stroke-width="4"/>

  <g fill="url(#claw)" filter="url(#soft)">
    <g transform="rotate(-16 256 250)">
      <path d="M150 132 Q176 120 210 140 L182 372 Q172 392 156 380 Q150 300 150 132 Z"/>
    </g>
    <g transform="rotate(0 256 250)">
      <path d="M242 122 Q268 110 300 132 L276 384 Q266 404 250 390 Q242 300 242 122 Z"/>
    </g>
    <g transform="rotate(16 256 250)">
      <path d="M334 132 Q360 120 392 142 L366 372 Q356 390 340 378 Q334 300 334 132 Z"/>
    </g>
  </g>
</svg>
